# xmcd
#
# Track frame offsets:
#	150
#	12623
#	24419
#	38187
#	53422
#	66665
#	80097
#	92975
#	106661
#	123453
#	140260
#	159917
#	174274
#	192301
#	207606
#	219592
#	231935
#	244706
#	256995
#	269621
#	282213
#
# Disc length: 3924 seconds
#
# Revision: 1
# Processed by: cddbd v1.5.2PL0 Copyright (c) Steve Scherf et al.
# Submitted via: audiograbber 1.83.01
#
DISCID=320f5215
DTITLE=Best of Blues - CD 04
DYEAR=1900
DGENRE=Blues
TTITLE0=Come On Boys,Let's Do That Messin' Around - Blind Blake
TTITLE1=Hard Pushin' Papa - Blind Blake
TTITLE2=Skeedle Loo Doo Blues - Blind Blake
TTITLE3=Georgia Bound - Blind Blake
TTITLE4=Too Tight Blues,No.2 - Blind Blake
TTITLE5=Diddie Wah Diddie - Blind Blake
TTITLE6=Southern Rag - Blind Blake
TTITLE7=Strollin' - Champion Jack Dupree
TTITLE8=T.B.Blues - Champion Jack Dupree
TTITLE9=Can't Kick The Habit - Champion Jack Dupree
TTITLE10=Evil Woman - Champion Jack Dupree
TTITLE11=Nasty Boogie - Champion Jack Dupree
TTITLE12=Bad Blood - Champion Jack Dupree
TTITLE13=Frankie and Johnny - Champion Jack Dupree
TTITLE14=Fly Hen Blues - Cousin Joe
TTITLE15=Baby You Don't Know At All - Cousin Joe
TTITLE16=The Barefood Baby - Cousin Joe
TTITLE17=Box Car Shorty And Peter Blue - Cousin Joe
TTITLE18=Beggin' Woman - Cousin Joe
TTITLE19=Sadie Brown - Cousin Joe
TTITLE20=Box Car Shorty's Confession - Cousin Joe
EXTD=
EXTT0=
EXTT1=
EXTT2=
EXTT3=
EXTT4=
EXTT5=
EXTT6=
EXTT7=
EXTT8=
EXTT9=
EXTT10=
EXTT11=
EXTT12=
EXTT13=
EXTT14=
EXTT15=
EXTT16=
EXTT17=
EXTT18=
EXTT19=
EXTT20=
PLAYORDER=
